<?xml version="1.0" encoding="iso-8859-1"?>
<!-- Generator: Adobe Illustrator 19.0.0, SVG Export Plug-In . SVG Version: 6.00 Build 0)  -->
<svg version="1.1" id="Layer_1" xmlns="http://www.w3.org/2000/svg" xmlns:xlink="http://www.w3.org/1999/xlink" x="0px" y="0px"
	 viewBox="0 0 512 512" style="enable-background:new 0 0 512 512;" xml:space="preserve">
<polygon style="fill:#FFEACF;" points="345.632,244.168 166.368,244.168 13.502,332.426 56.394,406.718 97.531,382.968 97.531,512 
	179.7,512 179.7,487.316 332.299,487.316 332.299,512 414.468,512 414.468,382.968 455.606,406.718 498.498,332.426 "/>
<polygon style="fill:#FFD6A0;" points="345.632,244.168 255.999,244.168 255.999,487.316 332.299,487.316 332.299,512 414.468,512 
	414.468,382.968 455.606,406.718 498.498,332.426 "/>
<polygon style="fill:#50412E;" points="414.468,383.464 97.531,383.464 97.531,418.68 203.177,418.68 203.177,487.349 
	308.822,487.349 308.822,418.68 414.468,418.68 "/>
<polygon points="255.944,383.464 255.944,487.349 308.822,487.349 308.822,418.68 414.468,418.68 414.468,383.464 "/>
<path d="M255.239,0c-36.929,0-66.972,30.043-66.972,66.972s30.043,66.972,66.972,66.972s66.972-30.043,66.972-66.972
	S292.168,0,255.239,0z"/>
<path style="fill:#FFD6A0;" d="M112.002,152.218c-5.564,15.816-8.602,32.812-8.602,50.507c0,84.143,68.455,152.598,152.599,152.598
	s152.599-68.455,152.599-152.598c0-17.694-3.038-34.691-8.602-50.507l-143.997-9.391L112.002,152.218z"/>
<path style="fill:#FFC170;" d="M255.999,142.827v212.496c84.144,0,152.599-68.455,152.599-152.598
	c0-17.694-3.038-34.691-8.602-50.507L255.999,142.827z"/>
<rect x="173.834" y="217.161" style="fill:#50412E;" width="46.191" height="35.215"/>
<rect x="290.455" y="217.161" width="47.715" height="35.215"/>
<path style="fill:#50412E;" d="M189.09,148.696c26.787,0,50.762,11.979,66.909,30.854c16.147-18.875,83.986-128.291,2.138-129.41
	C172.88,48.973,103.4,117.735,103.4,202.725c0,3.986,0.171,7.932,0.471,11.842C113.701,176.676,148.127,148.696,189.09,148.696z"/>
<path d="M408.568,199.628c-1.623-81.84-68.583-148.368-150.431-149.487c-0.715-0.009-1.425-0.002-2.138-0.002v129.412
	c16.147-18.875,40.122-30.854,66.909-30.854c40.961,0,75.385,27.975,85.217,65.862C408.502,209.641,408.668,204.665,408.568,199.628
	z"/>
<g>
</g>
<g>
</g>
<g>
</g>
<g>
</g>
<g>
</g>
<g>
</g>
<g>
</g>
<g>
</g>
<g>
</g>
<g>
</g>
<g>
</g>
<g>
</g>
<g>
</g>
<g>
</g>
<g>
</g>
</svg>
